# xmcd
#
# Track frame offsets: 
#        150
#        15664
#        34942
#        64968
#        73485
#        91458
#        106455
#        120551
#        153690
#        169428
#        178859
#        194057
#        208225
#        218592
#
# Disc length: 3033 seconds
#
# Revision: 0
# Processed by: cddbd v1.5PL3 Copyright (c) Steve Scherf et al.
# Submitted via: ExactAudioCopy v0.95a5
#
DISCID=e00bd70e
DTITLE=Rick Lee - There's Talk About A Fence
DYEAR=1999
DGENRE=Folk
TTITLE0=Bear
TTITLE1=The Come Heres And Been Heres
TTITLE2=The Ballad Of Harbo And Samuelsen
TTITLE3=Indian Neck
TTITLE4=Lunatic Asylum
TTITLE5=Rainbow's End
TTITLE6=Don't Say Goodnight
TTITLE7=The Ballad Of The Tinker's Daughter
TTITLE8=Daemon Lover
TTITLE9=April Fool
TTITLE10=Dives And Lazarus
TTITLE11=These October Days
TTITLE12=The Best We Can Do
TTITLE13=Don't Pet The Dog
EXTD=
EXTT0=
EXTT1=
EXTT2=
EXTT3=
EXTT4=
EXTT5=
EXTT6=
EXTT7=
EXTT8=
EXTT9=
EXTT10=
EXTT11=
EXTT12=
EXTT13=
PLAYORDER=
